<svg width="90" height="26" viewBox="0 0 90 26" fill="none" xmlns="http://www.w3.org/2000/svg">
<rect y="18" width="45" height="8" fill="black"/>
<rect x="45" y="18" width="45" height="8" fill="#D9D9D9"/>
<rect y="18" width="45" height="8" fill="black"/>
<rect x="45" y="18" width="45" height="8" fill="#D9D9D9"/>
<path d="M20.0236 13V4.27273H23.0748C23.6827 4.27273 24.1841 4.37784 24.579 4.58807C24.9739 4.79545 25.2679 5.07528 25.4611 5.42756C25.6543 5.77699 25.7509 6.16477 25.7509 6.59091C25.7509 6.96591 25.6841 7.27557 25.5506 7.51989C25.4199 7.7642 25.2466 7.95739 25.0307 8.09943C24.8176 8.24148 24.5861 8.34659 24.3361 8.41477V8.5C24.6032 8.51705 24.8716 8.6108 25.1415 8.78125C25.4114 8.9517 25.6373 9.19602 25.8191 9.5142C26.0009 9.83239 26.0918 10.2216 26.0918 10.6818C26.0918 11.1193 25.9924 11.5128 25.7935 11.8622C25.5946 12.2116 25.2807 12.4886 24.8517 12.6932C24.4228 12.8977 23.8645 13 23.177 13H20.0236ZM21.0804 12.0625H23.177C23.8674 12.0625 24.3574 11.929 24.6472 11.6619C24.9398 11.392 25.0861 11.0653 25.0861 10.6818C25.0861 10.3864 25.0108 10.1136 24.8603 9.86364C24.7097 9.6108 24.4952 9.40909 24.2168 9.25852C23.9384 9.10511 23.6088 9.02841 23.2282 9.02841H21.0804V12.0625ZM21.0804 8.10795H23.0407C23.3588 8.10795 23.6458 8.04545 23.9015 7.92045C24.16 7.79545 24.3645 7.61932 24.5151 7.39205C24.6685 7.16477 24.7452 6.89773 24.7452 6.59091C24.7452 6.20739 24.6117 5.8821 24.3446 5.61506C24.0776 5.34517 23.6543 5.21023 23.0748 5.21023H21.0804V8.10795ZM31.0669 15.4545V6.45455H32.0385V7.49432H32.1578C32.2317 7.38068 32.334 7.2358 32.4647 7.05966C32.5982 6.88068 32.7885 6.72159 33.0357 6.58239C33.2857 6.44034 33.6238 6.36932 34.0499 6.36932C34.601 6.36932 35.0868 6.5071 35.5073 6.78267C35.9277 7.05824 36.2559 7.44886 36.4917 7.95455C36.7275 8.46023 36.8453 9.05682 36.8453 9.74432C36.8453 10.4375 36.7275 11.0384 36.4917 11.5469C36.2559 12.0526 35.9292 12.4446 35.5115 12.723C35.0939 12.9986 34.6124 13.1364 34.0669 13.1364C33.6465 13.1364 33.3098 13.0668 33.057 12.9276C32.8042 12.7855 32.6096 12.625 32.4732 12.446C32.3368 12.2642 32.2317 12.1136 32.1578 11.9943H32.0726V15.4545H31.0669ZM32.0556 9.72727C32.0556 10.2216 32.128 10.6577 32.2729 11.0355C32.4178 11.4105 32.6294 11.7045 32.9078 11.9176C33.1863 12.1278 33.5272 12.233 33.9306 12.233C34.351 12.233 34.7019 12.1222 34.9831 11.9006C35.2672 11.6761 35.4803 11.375 35.6223 10.9972C35.7672 10.6165 35.8397 10.1932 35.8397 9.72727C35.8397 9.26705 35.7686 8.85227 35.6266 8.48295C35.4874 8.1108 35.2757 7.81676 34.9917 7.60085C34.7104 7.3821 34.3567 7.27273 33.9306 7.27273C33.5215 7.27273 33.1777 7.37642 32.8993 7.58381C32.6209 7.78835 32.4107 8.07528 32.2686 8.4446C32.1266 8.81108 32.0556 9.23864 32.0556 9.72727ZM40.3056 13.1534C39.8908 13.1534 39.5144 13.0753 39.1763 12.919C38.8382 12.7599 38.5698 12.5312 38.3709 12.233C38.1721 11.9318 38.0726 11.5682 38.0726 11.142C38.0726 10.767 38.1465 10.4631 38.2942 10.2301C38.4419 9.99432 38.6394 9.80966 38.8865 9.67614C39.1337 9.54261 39.4064 9.44318 39.7047 9.37784C40.0059 9.30966 40.3084 9.25568 40.6124 9.21591C41.0101 9.16477 41.3326 9.12642 41.5797 9.10085C41.8297 9.07244 42.0115 9.02557 42.1252 8.96023C42.2417 8.89489 42.2999 8.78125 42.2999 8.61932V8.58523C42.2999 8.16477 42.1848 7.83807 41.9547 7.60511C41.7275 7.37216 41.3823 7.25568 40.9192 7.25568C40.4391 7.25568 40.0627 7.3608 39.79 7.57102C39.5172 7.78125 39.3255 8.00568 39.2147 8.24432L38.2601 7.90341C38.4306 7.50568 38.6578 7.19602 38.9419 6.97443C39.2289 6.75 39.5414 6.59375 39.8794 6.50568C40.2203 6.41477 40.5556 6.36932 40.8851 6.36932C41.0953 6.36932 41.3368 6.39489 41.6096 6.44602C41.8851 6.49432 42.1507 6.59517 42.4064 6.74858C42.665 6.90199 42.8794 7.13352 43.0499 7.44318C43.2203 7.75284 43.3056 8.16761 43.3056 8.6875V13H42.2999V12.1136H42.2488C42.1806 12.2557 42.0669 12.4077 41.9078 12.5696C41.7488 12.7315 41.5371 12.8693 41.2729 12.983C41.0087 13.0966 40.6863 13.1534 40.3056 13.1534ZM40.459 12.25C40.8567 12.25 41.1919 12.1719 41.4647 12.0156C41.7402 11.8594 41.9476 11.6577 42.0868 11.4105C42.2289 11.1634 42.2999 10.9034 42.2999 10.6307V9.71023C42.2573 9.76136 42.1635 9.80824 42.0186 9.85085C41.8766 9.89062 41.7118 9.92614 41.5243 9.95739C41.3397 9.9858 41.1593 10.0114 40.9831 10.0341C40.8098 10.054 40.6692 10.071 40.5613 10.0852C40.2999 10.1193 40.0556 10.1747 39.8283 10.2514C39.6039 10.3253 39.4221 10.4375 39.2828 10.5881C39.1465 10.7358 39.0783 10.9375 39.0783 11.1932C39.0783 11.5426 39.2076 11.8068 39.4661 11.9858C39.7275 12.1619 40.0584 12.25 40.459 12.25ZM49.9991 4L50.5105 4.61364C50.3116 4.80682 50.0815 4.94176 49.8201 5.01847C49.5588 5.09517 49.2633 5.14205 48.9338 5.15909C48.6042 5.17614 48.2377 5.19318 47.8343 5.21023C47.3798 5.22727 47.0034 5.33807 46.7051 5.54261C46.4068 5.74716 46.1767 6.04261 46.0147 6.42898C45.8528 6.81534 45.7491 7.28977 45.7037 7.85227H45.7889C46.0105 7.44318 46.3173 7.14205 46.7093 6.94886C47.1014 6.75568 47.5218 6.65909 47.9707 6.65909C48.4821 6.65909 48.9423 6.77841 49.3514 7.01705C49.7605 7.25568 50.0843 7.60938 50.323 8.07812C50.5616 8.54688 50.6809 9.125 50.6809 9.8125C50.6809 10.4972 50.5588 11.0881 50.3145 11.5852C50.073 12.0824 49.7335 12.4659 49.296 12.7358C48.8613 13.0028 48.3514 13.1364 47.7662 13.1364C47.1809 13.1364 46.6681 12.9986 46.2278 12.723C45.7875 12.4446 45.4451 12.0327 45.2008 11.4872C44.9565 10.9389 44.8343 10.2614 44.8343 9.45455V8.75568C44.8343 7.2983 45.0815 6.19318 45.5758 5.44034C46.073 4.6875 46.8201 4.2983 47.8173 4.27273C48.1696 4.26136 48.4835 4.25852 48.7591 4.2642C49.0346 4.26989 49.2747 4.2571 49.4792 4.22585C49.6838 4.1946 49.8571 4.11932 49.9991 4ZM47.7662 12.233C48.161 12.233 48.5005 12.1335 48.7846 11.9347C49.0716 11.7358 49.2917 11.456 49.4451 11.0952C49.5985 10.7315 49.6752 10.304 49.6752 9.8125C49.6752 9.33523 49.5971 8.92898 49.4409 8.59375C49.2875 8.25852 49.0673 8.00284 48.7804 7.8267C48.4934 7.65057 48.1497 7.5625 47.7491 7.5625C47.4565 7.5625 47.1937 7.61222 46.9608 7.71165C46.7278 7.81108 46.5289 7.95739 46.3642 8.15057C46.1994 8.34375 46.0716 8.57955 45.9806 8.85795C45.8926 9.13636 45.8457 9.45455 45.84 9.8125C45.84 10.5455 46.0119 11.1321 46.3556 11.5724C46.6994 12.0128 47.1696 12.233 47.7662 12.233ZM54.8784 13.1364C54.2875 13.1364 53.769 12.9957 53.323 12.7145C52.8798 12.4332 52.5332 12.0398 52.2832 11.5341C52.036 11.0284 51.9125 10.4375 51.9125 9.76136C51.9125 9.07955 52.036 8.48437 52.2832 7.97585C52.5332 7.46733 52.8798 7.07244 53.323 6.79119C53.769 6.50994 54.2875 6.36932 54.8784 6.36932C55.4693 6.36932 55.9863 6.50994 56.4295 6.79119C56.8755 7.07244 57.2221 7.46733 57.4693 7.97585C57.7193 8.48437 57.8443 9.07955 57.8443 9.76136C57.8443 10.4375 57.7193 11.0284 57.4693 11.5341C57.2221 12.0398 56.8755 12.4332 56.4295 12.7145C55.9863 12.9957 55.4693 13.1364 54.8784 13.1364ZM54.8784 12.233C55.3272 12.233 55.6966 12.1179 55.9863 11.8878C56.2761 11.6577 56.4906 11.3551 56.6298 10.9801C56.769 10.6051 56.8386 10.1989 56.8386 9.76136C56.8386 9.32386 56.769 8.91619 56.6298 8.53835C56.4906 8.16051 56.2761 7.85511 55.9863 7.62216C55.6966 7.3892 55.3272 7.27273 54.8784 7.27273C54.4295 7.27273 54.0602 7.3892 53.7704 7.62216C53.4806 7.85511 53.2662 8.16051 53.127 8.53835C52.9877 8.91619 52.9181 9.32386 52.9181 9.76136C52.9181 10.1989 52.9877 10.6051 53.127 10.9801C53.2662 11.3551 53.4806 11.6577 53.7704 11.8878C54.0602 12.1179 54.4295 12.233 54.8784 12.233ZM58.524 7.39205V6.45455H63.8422V7.39205H61.6944V13H60.6887V7.39205H58.524ZM67.7136 13.1364C67.0829 13.1364 66.5389 12.9972 66.0815 12.7188C65.627 12.4375 65.2761 12.0455 65.0289 11.5426C64.7846 11.0369 64.6625 10.4489 64.6625 9.77841C64.6625 9.10795 64.7846 8.51705 65.0289 8.00568C65.2761 7.49148 65.6199 7.09091 66.0602 6.80398C66.5034 6.5142 67.0204 6.36932 67.6113 6.36932C67.9522 6.36932 68.2889 6.42614 68.6213 6.53977C68.9537 6.65341 69.2562 6.83807 69.5289 7.09375C69.8017 7.34659 70.019 7.68182 70.1809 8.09943C70.3429 8.51705 70.4238 9.03125 70.4238 9.64205V10.0682H65.3784V9.19886H69.4011C69.4011 8.82955 69.3272 8.5 69.1795 8.21023C69.0346 7.92045 68.8272 7.69176 68.5574 7.52415C68.2903 7.35653 67.975 7.27273 67.6113 7.27273C67.2108 7.27273 66.8642 7.37216 66.5716 7.57102C66.2818 7.76705 66.0588 8.02273 65.9025 8.33807C65.7463 8.65341 65.6681 8.99148 65.6681 9.35227V9.93182C65.6681 10.4261 65.7534 10.8452 65.9238 11.1889C66.0971 11.5298 66.3372 11.7898 66.644 11.9688C66.9508 12.1449 67.3074 12.233 67.7136 12.233C67.9778 12.233 68.2164 12.196 68.4295 12.1222C68.6454 12.0455 68.8315 11.9318 68.9877 11.7812C69.144 11.6278 69.2647 11.4375 69.35 11.2102L70.3216 11.483C70.2193 11.8125 70.0474 12.1023 69.8059 12.3523C69.5645 12.5994 69.2662 12.7926 68.911 12.9318C68.5559 13.0682 68.1568 13.1364 67.7136 13.1364Z" fill="black"/>
</svg>
