<svg width="90" height="26" viewBox="0 0 90 26" fill="none" xmlns="http://www.w3.org/2000/svg">
<rect width="90" height="8" transform="matrix(1 0 0 -1 0 26)" fill="#D9D9D9"/>
<rect width="90" height="8" transform="matrix(1 0 0 -1 0 26)" fill="#D9D9D9"/>
<path d="M27.6509 8.63636C27.6509 9.55682 27.4847 10.3523 27.1523 11.0227C26.82 11.6932 26.364 12.2102 25.7844 12.5739C25.2049 12.9375 24.543 13.1193 23.7987 13.1193C23.0543 13.1193 22.3924 12.9375 21.8129 12.5739C21.2333 12.2102 20.7773 11.6932 20.445 11.0227C20.1126 10.3523 19.9464 9.55682 19.9464 8.63636C19.9464 7.71591 20.1126 6.92045 20.445 6.25C20.7773 5.57955 21.2333 5.0625 21.8129 4.69886C22.3924 4.33523 23.0543 4.15341 23.7987 4.15341C24.543 4.15341 25.2049 4.33523 25.7844 4.69886C26.364 5.0625 26.82 5.57955 27.1523 6.25C27.4847 6.92045 27.6509 7.71591 27.6509 8.63636ZM26.6282 8.63636C26.6282 7.88068 26.5018 7.2429 26.2489 6.72301C25.9989 6.20312 25.6594 5.80966 25.2305 5.54261C24.8043 5.27557 24.3271 5.14205 23.7987 5.14205C23.2702 5.14205 22.7915 5.27557 22.3626 5.54261C21.9364 5.80966 21.5969 6.20312 21.3441 6.72301C21.0941 7.2429 20.9691 7.88068 20.9691 8.63636C20.9691 9.39205 21.0941 10.0298 21.3441 10.5497C21.5969 11.0696 21.9364 11.4631 22.3626 11.7301C22.7915 11.9972 23.2702 12.1307 23.7987 12.1307C24.3271 12.1307 24.8043 11.9972 25.2305 11.7301C25.6594 11.4631 25.9989 11.0696 26.2489 10.5497C26.5018 10.0298 26.6282 9.39205 26.6282 8.63636ZM28.9165 7.39205V6.45455H34.2347V7.39205H32.087V13H31.0813V7.39205H28.9165ZM35.7017 13V6.45455H36.7074V9.30114H37.3722L39.7244 6.45455H41.0199L38.3778 9.60795L41.054 13H39.7585L37.6108 10.2386H36.7074V13H35.7017ZM42.147 15.4545V6.45455H43.1186V7.49432H43.2379C43.3118 7.38068 43.4141 7.2358 43.5447 7.05966C43.6783 6.88068 43.8686 6.72159 44.1158 6.58239C44.3658 6.44034 44.7038 6.36932 45.13 6.36932C45.6811 6.36932 46.1669 6.5071 46.5874 6.78267C47.0078 7.05824 47.3359 7.44886 47.5717 7.95455C47.8075 8.46023 47.9254 9.05682 47.9254 9.74432C47.9254 10.4375 47.8075 11.0384 47.5717 11.5469C47.3359 12.0526 47.0092 12.4446 46.5916 12.723C46.174 12.9986 45.6925 13.1364 45.147 13.1364C44.7266 13.1364 44.3899 13.0668 44.1371 12.9276C43.8842 12.7855 43.6896 12.625 43.5533 12.446C43.4169 12.2642 43.3118 12.1136 43.2379 11.9943H43.1527V15.4545H42.147ZM43.1357 9.72727C43.1357 10.2216 43.2081 10.6577 43.353 11.0355C43.4979 11.4105 43.7095 11.7045 43.9879 11.9176C44.2663 12.1278 44.6072 12.233 45.0107 12.233C45.4311 12.233 45.782 12.1222 46.0632 11.9006C46.3473 11.6761 46.5604 11.375 46.7024 10.9972C46.8473 10.6165 46.9197 10.1932 46.9197 9.72727C46.9197 9.26705 46.8487 8.85227 46.7067 8.48295C46.5675 8.1108 46.3558 7.81676 46.0717 7.60085C45.7905 7.3821 45.4368 7.27273 45.0107 7.27273C44.6016 7.27273 44.2578 7.37642 43.9794 7.58381C43.701 7.78835 43.4908 8.07528 43.3487 8.4446C43.2067 8.81108 43.1357 9.23864 43.1357 9.72727ZM50.3288 8.82386H52.2038C52.9709 8.82386 53.5575 9.01847 53.9638 9.40767C54.37 9.79687 54.5732 10.2898 54.5732 10.8864C54.5732 11.2784 54.4822 11.6349 54.3004 11.956C54.1186 12.2741 53.8516 12.5284 53.4993 12.7188C53.147 12.9062 52.7152 13 52.2038 13H49.4595V6.45455H50.4652V12.0625H52.2038C52.6016 12.0625 52.9283 11.9574 53.1839 11.7472C53.4396 11.5369 53.5675 11.267 53.5675 10.9375C53.5675 10.5909 53.4396 10.3082 53.1839 10.0895C52.9283 9.87074 52.6016 9.76136 52.2038 9.76136H50.3288V8.82386ZM55.6129 13V6.45455H56.6186V13H55.6129ZM58.0845 7.39205V6.45455H63.4027V7.39205H61.255V13H60.2493V7.39205H58.0845ZM67.1889 13.1364C66.598 13.1364 66.0795 12.9957 65.6335 12.7145C65.1903 12.4332 64.8438 12.0398 64.5938 11.5341C64.3466 11.0284 64.223 10.4375 64.223 9.76136C64.223 9.07955 64.3466 8.48437 64.5938 7.97585C64.8438 7.46733 65.1903 7.07244 65.6335 6.79119C66.0795 6.50994 66.598 6.36932 67.1889 6.36932C67.7798 6.36932 68.2969 6.50994 68.7401 6.79119C69.1861 7.07244 69.5327 7.46733 69.7798 7.97585C70.0298 8.48437 70.1548 9.07955 70.1548 9.76136C70.1548 10.4375 70.0298 11.0284 69.7798 11.5341C69.5327 12.0398 69.1861 12.4332 68.7401 12.7145C68.2969 12.9957 67.7798 13.1364 67.1889 13.1364ZM67.1889 12.233C67.6378 12.233 68.0071 12.1179 68.2969 11.8878C68.5866 11.6577 68.8011 11.3551 68.9403 10.9801C69.0795 10.6051 69.1491 10.1989 69.1491 9.76136C69.1491 9.32386 69.0795 8.91619 68.9403 8.53835C68.8011 8.16051 68.5866 7.85511 68.2969 7.62216C68.0071 7.3892 67.6378 7.27273 67.1889 7.27273C66.7401 7.27273 66.3707 7.3892 66.081 7.62216C65.7912 7.85511 65.5767 8.16051 65.4375 8.53835C65.2983 8.91619 65.2287 9.32386 65.2287 9.76136C65.2287 10.1989 65.2983 10.6051 65.4375 10.9801C65.5767 11.3551 65.7912 11.6577 66.081 11.8878C66.3707 12.1179 66.7401 12.233 67.1889 12.233Z" fill="black"/>
</svg>
