<svg width="243" height="78" viewBox="0 0 243 78" fill="none" xmlns="http://www.w3.org/2000/svg">
<path d="M40.5 0L49.5928 26.9483H79.0178L55.2125 43.6033L64.3053 70.5517L40.5 53.8967L16.6947 70.5517L25.7875 43.6033L1.98221 26.9483H31.4072L40.5 0Z" fill="black"/>
<path d="M121.5 0L130.593 26.9483H160.018L136.212 43.6033L145.305 70.5517L121.5 53.8967L97.6947 70.5517L106.788 43.6033L82.9822 26.9483H112.407L121.5 0Z" fill="black"/>
<path d="M202.5 0L211.593 26.9483H241.018L217.212 43.6033L226.305 70.5517L202.5 53.8967L178.695 70.5517L187.788 43.6033L163.982 26.9483H193.407L202.5 0Z" fill="black"/>
</svg>
