<svg width="90" height="26" viewBox="0 0 90 26" fill="none" xmlns="http://www.w3.org/2000/svg">
<rect y="18" width="90" height="8" fill="black"/>
<rect y="18" width="90" height="8" fill="black"/>
<path d="M15.6706 13.1193C15.1081 13.1193 14.6067 13.0227 14.1664 12.8295C13.7289 12.6364 13.3809 12.3679 13.1223 12.0241C12.8667 11.6776 12.7275 11.2756 12.7047 10.8182H13.7786C13.8013 11.0994 13.8979 11.3423 14.0684 11.5469C14.2388 11.7486 14.4618 11.9048 14.7374 12.0156C15.013 12.1264 15.3184 12.1818 15.6536 12.1818C16.0286 12.1818 16.361 12.1165 16.6507 11.9858C16.9405 11.8551 17.1678 11.6733 17.3326 11.4403C17.4973 11.2074 17.5797 10.9375 17.5797 10.6307C17.5797 10.3097 17.5002 10.027 17.3411 9.78267C17.182 9.53551 16.949 9.34233 16.6422 9.20312C16.3354 9.06392 15.9604 8.99432 15.5172 8.99432H14.8184V8.05682H15.5172C15.8638 8.05682 16.1678 7.99432 16.4292 7.86932C16.6934 7.74432 16.8993 7.56818 17.0471 7.34091C17.1976 7.11364 17.2729 6.84659 17.2729 6.53977C17.2729 6.24432 17.2076 5.98722 17.0769 5.76847C16.9462 5.54972 16.7615 5.37926 16.5229 5.2571C16.2871 5.13494 16.0087 5.07386 15.6877 5.07386C15.3865 5.07386 15.1025 5.12926 14.8354 5.24006C14.5712 5.34801 14.3553 5.50568 14.1877 5.71307C14.0201 5.91761 13.9292 6.16477 13.915 6.45455H12.8922C12.9093 5.99716 13.0471 5.59659 13.3056 5.25284C13.5641 4.90625 13.9022 4.63636 14.3198 4.44318C14.7402 4.25 15.2019 4.15341 15.7047 4.15341C16.2445 4.15341 16.7076 4.26278 17.0939 4.48153C17.4803 4.69744 17.7772 4.98295 17.9846 5.33807C18.1919 5.69318 18.2956 6.0767 18.2956 6.48864C18.2956 6.98011 18.1664 7.39915 17.9078 7.74574C17.6522 8.09233 17.3042 8.33239 16.8638 8.46591V8.53409C17.415 8.625 17.8453 8.85937 18.155 9.23722C18.4647 9.61222 18.6195 10.0767 18.6195 10.6307C18.6195 11.1051 18.4902 11.5312 18.2317 11.9091C17.976 12.2841 17.6266 12.5795 17.1834 12.7955C16.7402 13.0114 16.236 13.1193 15.6706 13.1193ZM22.3056 13.1534C21.8908 13.1534 21.5144 13.0753 21.1763 12.919C20.8382 12.7599 20.5698 12.5312 20.3709 12.233C20.1721 11.9318 20.0726 11.5682 20.0726 11.142C20.0726 10.767 20.1465 10.4631 20.2942 10.2301C20.4419 9.99432 20.6394 9.80966 20.8865 9.67614C21.1337 9.54261 21.4064 9.44318 21.7047 9.37784C22.0059 9.30966 22.3084 9.25568 22.6124 9.21591C23.0101 9.16477 23.3326 9.12642 23.5797 9.10085C23.8297 9.07244 24.0115 9.02557 24.1252 8.96023C24.2417 8.89489 24.2999 8.78125 24.2999 8.61932V8.58523C24.2999 8.16477 24.1848 7.83807 23.9547 7.60511C23.7275 7.37216 23.3823 7.25568 22.9192 7.25568C22.4391 7.25568 22.0627 7.3608 21.79 7.57102C21.5172 7.78125 21.3255 8.00568 21.2147 8.24432L20.2601 7.90341C20.4306 7.50568 20.6578 7.19602 20.9419 6.97443C21.2289 6.75 21.5414 6.59375 21.8794 6.50568C22.2203 6.41477 22.5556 6.36932 22.8851 6.36932C23.0953 6.36932 23.3368 6.39489 23.6096 6.44602C23.8851 6.49432 24.1507 6.59517 24.4064 6.74858C24.665 6.90199 24.8794 7.13352 25.0499 7.44318C25.2203 7.75284 25.3056 8.16761 25.3056 8.6875V13H24.2999V12.1136H24.2488C24.1806 12.2557 24.0669 12.4077 23.9078 12.5696C23.7488 12.7315 23.5371 12.8693 23.2729 12.983C23.0087 13.0966 22.6863 13.1534 22.3056 13.1534ZM22.459 12.25C22.8567 12.25 23.1919 12.1719 23.4647 12.0156C23.7402 11.8594 23.9476 11.6577 24.0868 11.4105C24.2289 11.1634 24.2999 10.9034 24.2999 10.6307V9.71023C24.2573 9.76136 24.1635 9.80824 24.0186 9.85085C23.8766 9.89062 23.7118 9.92614 23.5243 9.95739C23.3397 9.9858 23.1593 10.0114 22.9831 10.0341C22.8098 10.054 22.6692 10.071 22.5613 10.0852C22.2999 10.1193 22.0556 10.1747 21.8283 10.2514C21.6039 10.3253 21.4221 10.4375 21.2828 10.5881C21.1465 10.7358 21.0783 10.9375 21.0783 11.1932C21.0783 11.5426 21.2076 11.8068 21.4661 11.9858C21.7275 12.1619 22.0584 12.25 22.459 12.25ZM27.1412 13V6.45455H29.8173C30.5218 6.45455 31.0815 6.61364 31.4963 6.93182C31.911 7.25 32.1184 7.67045 32.1184 8.19318C32.1184 8.59091 32.0005 8.89915 31.7647 9.1179C31.5289 9.33381 31.2264 9.48011 30.8571 9.55682C31.0985 9.59091 31.3329 9.67614 31.5602 9.8125C31.7903 9.94886 31.9806 10.1364 32.1312 10.375C32.2818 10.6108 32.3571 10.9006 32.3571 11.2443C32.3571 11.5795 32.2718 11.8793 32.1014 12.1435C31.9309 12.4077 31.6866 12.6165 31.3684 12.7699C31.0502 12.9233 30.6696 13 30.2264 13H27.1412ZM28.0957 12.0795H30.2264C30.573 12.0795 30.8443 11.9972 31.0403 11.8324C31.2363 11.6676 31.3343 11.4432 31.3343 11.1591C31.3343 10.821 31.2363 10.5554 31.0403 10.3622C30.8443 10.1662 30.573 10.0682 30.2264 10.0682H28.0957V12.0795ZM28.0957 9.19886H29.8173C30.0872 9.19886 30.3187 9.16193 30.5119 9.08807C30.7051 9.01136 30.8528 8.90341 30.9551 8.7642C31.0602 8.62216 31.1127 8.45455 31.1127 8.26136C31.1127 7.9858 30.9977 7.76989 30.7676 7.61364C30.5375 7.45455 30.2207 7.375 29.8173 7.375H28.0957V9.19886ZM36.6238 13.1364C35.9931 13.1364 35.449 12.9972 34.9917 12.7188C34.5371 12.4375 34.1863 12.0455 33.9391 11.5426C33.6948 11.0369 33.5726 10.4489 33.5726 9.77841C33.5726 9.10795 33.6948 8.51705 33.9391 8.00568C34.1863 7.49148 34.53 7.09091 34.9703 6.80398C35.4135 6.5142 35.9306 6.36932 36.5215 6.36932C36.8624 6.36932 37.199 6.42614 37.5314 6.53977C37.8638 6.65341 38.1664 6.83807 38.4391 7.09375C38.7118 7.34659 38.9292 7.68182 39.0911 8.09943C39.253 8.51705 39.334 9.03125 39.334 9.64205V10.0682H34.2885V9.19886H38.3113C38.3113 8.82955 38.2374 8.5 38.0897 8.21023C37.9448 7.92045 37.7374 7.69176 37.4675 7.52415C37.2005 7.35653 36.8851 7.27273 36.5215 7.27273C36.1209 7.27273 35.7743 7.37216 35.4817 7.57102C35.1919 7.76705 34.9689 8.02273 34.8127 8.33807C34.6564 8.65341 34.5783 8.99148 34.5783 9.35227V9.93182C34.5783 10.4261 34.6635 10.8452 34.834 11.1889C35.0073 11.5298 35.2473 11.7898 35.5542 11.9688C35.861 12.1449 36.2175 12.233 36.6238 12.233C36.888 12.233 37.1266 12.196 37.3397 12.1222C37.5556 12.0455 37.7417 11.9318 37.8979 11.7812C38.0542 11.6278 38.1749 11.4375 38.2601 11.2102L39.2317 11.483C39.1294 11.8125 38.9576 12.1023 38.7161 12.3523C38.4746 12.5994 38.1763 12.7926 37.8212 12.9318C37.4661 13.0682 37.0669 13.1364 36.6238 13.1364ZM40.8638 15.4545V6.45455H41.8354V7.49432H41.9547C42.0286 7.38068 42.1309 7.2358 42.2615 7.05966C42.3951 6.88068 42.5854 6.72159 42.8326 6.58239C43.0826 6.44034 43.4206 6.36932 43.8468 6.36932C44.3979 6.36932 44.8837 6.5071 45.3042 6.78267C45.7246 7.05824 46.0527 7.44886 46.2885 7.95455C46.5243 8.46023 46.6422 9.05682 46.6422 9.74432C46.6422 10.4375 46.5243 11.0384 46.2885 11.5469C46.0527 12.0526 45.726 12.4446 45.3084 12.723C44.8908 12.9986 44.4093 13.1364 43.8638 13.1364C43.4434 13.1364 43.1067 13.0668 42.8539 12.9276C42.601 12.7855 42.4064 12.625 42.2701 12.446C42.1337 12.2642 42.0286 12.1136 41.9547 11.9943H41.8695V15.4545H40.8638ZM41.8525 9.72727C41.8525 10.2216 41.9249 10.6577 42.0698 11.0355C42.2147 11.4105 42.4263 11.7045 42.7047 11.9176C42.9831 12.1278 43.324 12.233 43.7275 12.233C44.1479 12.233 44.4988 12.1222 44.78 11.9006C45.0641 11.6761 45.2772 11.375 45.4192 10.9972C45.5641 10.6165 45.6365 10.1932 45.6365 9.72727C45.6365 9.26705 45.5655 8.85227 45.4235 8.48295C45.2843 8.1108 45.0726 7.81676 44.7885 7.60085C44.5073 7.3821 44.1536 7.27273 43.7275 7.27273C43.3184 7.27273 42.9746 7.37642 42.6962 7.58381C42.4178 7.78835 42.2076 8.07528 42.0655 8.4446C41.9235 8.81108 41.8525 9.23864 41.8525 9.72727ZM48.1763 6.45455H49.182V12.0625H51.6536V6.45455H52.6593V12.0625H55.1309V6.45455H56.1365V13H48.1763V6.45455ZM60.7175 13.1364C60.0868 13.1364 59.5428 12.9972 59.0854 12.7188C58.6309 12.4375 58.28 12.0455 58.0328 11.5426C57.7885 11.0369 57.6664 10.4489 57.6664 9.77841C57.6664 9.10795 57.7885 8.51705 58.0328 8.00568C58.28 7.49148 58.6238 7.09091 59.0641 6.80398C59.5073 6.5142 60.0243 6.36932 60.6152 6.36932C60.9561 6.36932 61.2928 6.42614 61.6252 6.53977C61.9576 6.65341 62.2601 6.83807 62.5328 7.09375C62.8056 7.34659 63.0229 7.68182 63.1848 8.09943C63.3468 8.51705 63.4277 9.03125 63.4277 9.64205V10.0682H58.3823V9.19886H62.405C62.405 8.82955 62.3311 8.5 62.1834 8.21023C62.0385 7.92045 61.8311 7.69176 61.5613 7.52415C61.2942 7.35653 60.9789 7.27273 60.6152 7.27273C60.2147 7.27273 59.8681 7.37216 59.5755 7.57102C59.2857 7.76705 59.0627 8.02273 58.9064 8.33807C58.7502 8.65341 58.6721 8.99148 58.6721 9.35227V9.93182C58.6721 10.4261 58.7573 10.8452 58.9277 11.1889C59.101 11.5298 59.3411 11.7898 59.6479 11.9688C59.9547 12.1449 60.3113 12.233 60.7175 12.233C60.9817 12.233 61.2203 12.196 61.4334 12.1222C61.6493 12.0455 61.8354 11.9318 61.9917 11.7812C62.1479 11.6278 62.2686 11.4375 62.3539 11.2102L63.3255 11.483C63.2232 11.8125 63.0513 12.1023 62.8098 12.3523C62.5684 12.5994 62.2701 12.7926 61.915 12.9318C61.5598 13.0682 61.1607 13.1364 60.7175 13.1364ZM69.3382 9.26705V10.2045H65.7246V9.26705H69.3382ZM65.9632 6.45455V13H64.9576V6.45455H65.9632ZM70.1053 6.45455V13H69.0996V6.45455H70.1053ZM74.601 13.1364C74.0101 13.1364 73.4917 12.9957 73.0456 12.7145C72.6025 12.4332 72.2559 12.0398 72.0059 11.5341C71.7587 11.0284 71.6351 10.4375 71.6351 9.76136C71.6351 9.07955 71.7587 8.48437 72.0059 7.97585C72.2559 7.46733 72.6025 7.07244 73.0456 6.79119C73.4917 6.50994 74.0101 6.36932 74.601 6.36932C75.1919 6.36932 75.709 6.50994 76.1522 6.79119C76.5982 7.07244 76.9448 7.46733 77.1919 7.97585C77.4419 8.48437 77.5669 9.07955 77.5669 9.76136C77.5669 10.4375 77.4419 11.0284 77.1919 11.5341C76.9448 12.0398 76.5982 12.4332 76.1522 12.7145C75.709 12.9957 75.1919 13.1364 74.601 13.1364ZM74.601 12.233C75.0499 12.233 75.4192 12.1179 75.709 11.8878C75.9988 11.6577 76.2132 11.3551 76.3525 10.9801C76.4917 10.6051 76.5613 10.1989 76.5613 9.76136C76.5613 9.32386 76.4917 8.91619 76.3525 8.53835C76.2132 8.16051 75.9988 7.85511 75.709 7.62216C75.4192 7.3892 75.0499 7.27273 74.601 7.27273C74.1522 7.27273 73.7828 7.3892 73.4931 7.62216C73.2033 7.85511 72.9888 8.16051 72.8496 8.53835C72.7104 8.91619 72.6408 9.32386 72.6408 9.76136C72.6408 10.1989 72.7104 10.6051 72.8496 10.9801C72.9888 11.3551 73.2033 11.6577 73.4931 11.8878C73.7828 12.1179 74.1522 12.233 74.601 12.233Z" fill="black"/>
</svg>
